<svg width="16" height="16" viewBox="0 0 16 16" fill="none" xmlns="http://www.w3.org/2000/svg">
<g id="fi_271228">
<g id="Group">
<g id="Group_2">
<path id="Vector" d="M0.355359 8.62432L7.47556 15.7444C7.64024 15.9092 7.86008 16 8.09448 16C8.32889 16 8.54872 15.9092 8.7134 15.7444L9.23776 15.2202C9.57896 14.8786 9.57896 14.3234 9.23776 13.9823L3.25875 8.00332L9.24439 2.01768C9.40907 1.85286 9.5 1.63316 9.5 1.39888C9.5 1.16435 9.40907 0.944643 9.24439 0.779701L8.72004 0.255608C8.55523 0.0907965 8.33552 9.53674e-07 8.10112 9.53674e-07C7.86671 9.53674e-07 7.64688 0.0907965 7.4822 0.255608L0.355359 7.38218C0.190287 7.54752 0.0996218 7.76826 0.100142 8.00293C0.0996218 8.2385 0.190287 8.45912 0.355359 8.62432Z" fill="#333D4B"/>
</g>
</g>
</g>
</svg>
