<svg width="14" height="14" viewBox="0 0 14 14" fill="none" xmlns="http://www.w3.org/2000/svg">
<g id="fi_9428873" clip-path="url(#clip0_1145_20800)">
<g id="Clip path group">
<mask id="mask0_1145_20800" style="mask-type:luminance" maskUnits="userSpaceOnUse" x="0" y="0" width="14" height="14">
<g id="clip0_17_17330">
<path id="Vector" d="M0 0H14V14H0V0Z" fill="white"/>
</g>
</mask>
<g mask="url(#mask0_1145_20800)">
<g id="Group">
<path id="Vector_2" d="M8.75033 0.583496H2.33366C1.69199 0.583496 1.16699 1.1085 1.16699 1.75016V9.3335C1.16699 9.65433 1.42949 9.91683 1.75033 9.91683C2.07116 9.91683 2.33366 9.65433 2.33366 9.3335V2.3335C2.33366 2.01266 2.59616 1.75016 2.91699 1.75016H8.75033C9.07116 1.75016 9.33366 1.48766 9.33366 1.16683C9.33366 0.845996 9.07116 0.583496 8.75033 0.583496ZM11.0837 2.91683H4.66699C4.02533 2.91683 3.50033 3.44183 3.50033 4.0835V12.2502C3.50033 12.8918 4.02533 13.4168 4.66699 13.4168H11.0837C11.7253 13.4168 12.2503 12.8918 12.2503 12.2502V4.0835C12.2503 3.44183 11.7253 2.91683 11.0837 2.91683ZM10.5003 12.2502H5.25033C4.92949 12.2502 4.66699 11.9877 4.66699 11.6668V4.66683C4.66699 4.346 4.92949 4.0835 5.25033 4.0835H10.5003C10.8212 4.0835 11.0837 4.346 11.0837 4.66683V11.6668C11.0837 11.9877 10.8212 12.2502 10.5003 12.2502Z" fill="#838383"/>
</g>
</g>
</g>
</g>
<defs>
<clipPath id="clip0_1145_20800">
<rect width="14" height="14" fill="white" />
</clipPath>
</defs>
</svg>
