<svg width="10" height="14" viewBox="0 0 10 14" fill="none" xmlns="http://www.w3.org/2000/svg">
<g id="Group">
<g id="Group_2">
<path id="Vector" d="M4.66502 13.8486C4.84396 14.0507 5.15638 14.0503 5.33499 13.8486H4.66502ZM0.5 5.07025C0.5 2.54405 2.52568 0.5 5.00001 0.5C7.47429 0.5 9.49996 2.54405 9.50001 5.07025C9.50001 5.83949 9.24941 6.73564 8.83957 7.67548C8.43238 8.60925 7.88329 9.55193 7.32142 10.4047C6.2851 11.9776 5.22752 13.2116 5.00001 13.4723C4.7725 13.2116 3.71491 11.9777 2.6786 10.4047C2.11672 9.55193 1.56763 8.60925 1.16044 7.67548C0.750603 6.73564 0.5 5.83949 0.5 5.07025ZM5.03937 13.5171L5.03936 13.5171L5.03937 13.5171ZM1.9844 5.07025C1.9844 6.7464 3.33018 8.12123 5.00001 8.12123C6.66981 8.12123 8.01558 6.74643 8.01558 5.07028C8.01558 3.39413 6.66981 2.01929 5.00001 2.01929C3.33021 2.01929 1.9844 3.39408 1.9844 5.07025Z" stroke="black"/>
</g>
</g>
</svg>
