<svg width="11" height="10" viewBox="0 0 11 10" fill="none" xmlns="http://www.w3.org/2000/svg">
<g id="fi_271228" clip-path="url(#clip0_1145_20788)">
<g id="Group">
<g id="Group_2">
<path id="Vector" d="M5.8902 7.7779L10.3402 3.32777C10.4433 3.22485 10.5 3.08745 10.5 2.94095C10.5 2.79445 10.4433 2.65705 10.3402 2.55412L10.0126 2.2264C9.79911 2.01315 9.45212 2.01315 9.23895 2.2264L5.50207 5.96328L1.76105 2.22225C1.65804 2.11933 1.52072 2.0625 1.3743 2.0625C1.22772 2.0625 1.0904 2.11933 0.987312 2.22225L0.659754 2.54998C0.556747 2.65298 0.5 2.7903 0.5 2.9368C0.5 3.0833 0.556747 3.2207 0.659754 3.32363L5.11386 7.7779C5.2172 7.88107 5.35516 7.93774 5.50183 7.93741C5.64906 7.93774 5.78695 7.88107 5.8902 7.7779Z" fill="#B0B8C1"/>
</g>
</g>
</g>
<defs>
<clipPath id="clip0_1145_20788">
<rect width="10" height="10" fill="white" transform="matrix(0 1 -1 0 10.5 0)"/>
</clipPath>
</defs>
</svg>
