<svg width="32" height="32" viewBox="0 0 32 32" fill="none" xmlns="http://www.w3.org/2000/svg">
<g id="fi_5082720">
<g id="Open Folder">
<path id="Vector" d="M30.0001 12H27.3334V9.33333C27.3338 9.07059 27.2823 8.81036 27.1819 8.56755C27.0815 8.32474 26.9342 8.10413 26.7484 7.91834C26.5626 7.73255 26.342 7.58525 26.0992 7.48486C25.8564 7.38448 25.5962 7.33298 25.3334 7.33333H15.1668C14.8691 7.3334 14.5752 7.267 14.3064 7.13897C14.0377 7.01095 13.8009 6.82453 13.6134 6.59334L12.3068 4.98667C12.0577 4.67848 11.7428 4.42991 11.3852 4.25919C11.0276 4.08846 10.6364 3.99991 10.2401 4H2.66677C2.40403 3.99965 2.1438 4.05114 1.90099 4.15153C1.65818 4.25191 1.43756 4.39922 1.25178 4.58501C1.06599 4.77079 0.918683 4.99141 0.818298 5.23422C0.717913 5.47703 0.666421 5.73726 0.666772 6V25.7133C0.665393 26.0136 0.724275 26.3111 0.839932 26.5882C0.955589 26.8654 1.12567 27.1165 1.34011 27.3267C1.55032 27.5411 1.80141 27.7112 2.07853 27.8268C2.35565 27.9425 2.65316 28.0014 2.95344 28H25.3934C25.8888 27.9998 26.3707 27.8393 26.7673 27.5425C27.1638 27.2457 27.4537 26.8285 27.5934 26.3533L31.2801 13.7067C31.3376 13.508 31.3482 13.2986 31.311 13.0951C31.2738 12.8917 31.1898 12.6996 31.0657 12.5341C30.9416 12.3686 30.7807 12.2343 30.5958 12.1416C30.4109 12.0489 30.207 12.0004 30.0001 12Z" fill="#376CFB"/>
<path id="Vector_2" d="M29.9991 12H11.0483C10.5536 12.0001 10.0722 12.1606 9.67638 12.4575C9.2806 12.7544 8.9918 13.1717 8.85333 13.6467L5.14666 26.3543C5.00818 26.829 4.71946 27.2461 4.32381 27.5428C3.92817 27.8396 3.44695 28 2.95239 28H25.3949C25.8898 28.0001 26.3713 27.8396 26.7672 27.5427C27.1631 27.2457 27.452 26.8284 27.5905 26.3533L31.2792 13.7067C31.3372 13.5079 31.348 13.2985 31.311 13.0948C31.274 12.8911 31.19 12.6989 31.0658 12.5333C30.9416 12.3677 30.7806 12.2333 30.5954 12.1407C30.4103 12.0482 30.2061 12 29.9991 12Z" fill="#4294FF"/>
</g>
</g>
</svg>
