<svg width="19" height="20" viewBox="0 0 19 20" fill="none" xmlns="http://www.w3.org/2000/svg">
<path id="Vector" d="M18.5 16.5H8.9494C8.83417 15.9354 8.52744 15.428 8.0811 15.0635C7.63477 14.6991 7.07623 14.5 6.5 14.5C5.92377 14.5 5.36523 14.6991 4.9189 15.0635C4.47256 15.428 4.16583 15.9354 4.0506 16.5H0.5C0.367392 16.5 0.240215 16.5527 0.146447 16.6464C0.0526785 16.7402 0 16.8674 0 17C0 17.1326 0.0526785 17.2598 0.146447 17.3536C0.240215 17.4473 0.367392 17.5 0.5 17.5H4.0506C4.16583 18.0646 4.47256 18.572 4.9189 18.9365C5.36523 19.3009 5.92377 19.5 6.5 19.5C7.07623 19.5 7.63477 19.3009 8.0811 18.9365C8.52744 18.572 8.83417 18.0646 8.9494 17.5H18.5C18.6326 17.5 18.7598 17.4473 18.8536 17.3536C18.9473 17.2598 19 17.1326 19 17C19 16.8674 18.9473 16.7402 18.8536 16.6464C18.7598 16.5527 18.6326 16.5 18.5 16.5ZM6.5 18.5C6.20333 18.5 5.91332 18.412 5.66665 18.2472C5.41997 18.0824 5.22771 17.8481 5.11418 17.574C5.00065 17.2999 4.97094 16.9983 5.02882 16.7074C5.0867 16.4164 5.22956 16.1491 5.43934 15.9393C5.64912 15.7296 5.91639 15.5867 6.20736 15.5288C6.49834 15.4709 6.79994 15.5007 7.07403 15.6142C7.34811 15.7277 7.58238 15.92 7.7472 16.1666C7.91203 16.4133 8 16.7033 8 17C7.99957 17.3977 7.84139 17.779 7.56018 18.0602C7.27897 18.3414 6.89769 18.4996 6.5 18.5ZM18.5 9.5H15.9494C15.8342 8.93541 15.5274 8.42796 15.0811 8.06351C14.6348 7.69907 14.0762 7.5 13.5 7.5C12.9238 7.5 12.3652 7.69907 11.9189 8.06351C11.4726 8.42796 11.1658 8.93541 11.0506 9.5H0.5C0.367392 9.5 0.240215 9.55268 0.146447 9.64645C0.0526785 9.74021 0 9.86739 0 10C0 10.1326 0.0526785 10.2598 0.146447 10.3536C0.240215 10.4473 0.367392 10.5 0.5 10.5H11.0506C11.1658 11.0646 11.4726 11.572 11.9189 11.9365C12.3652 12.3009 12.9238 12.5 13.5 12.5C14.0762 12.5 14.6348 12.3009 15.0811 11.9365C15.5274 11.572 15.8342 11.0646 15.9494 10.5H18.5C18.6326 10.5 18.7598 10.4473 18.8536 10.3536C18.9473 10.2598 19 10.1326 19 10C19 9.86739 18.9473 9.74021 18.8536 9.64645C18.7598 9.55268 18.6326 9.5 18.5 9.5ZM13.5 11.5C13.2033 11.5 12.9133 11.412 12.6666 11.2472C12.42 11.0824 12.2277 10.8481 12.1142 10.574C12.0006 10.2999 11.9709 9.99834 12.0288 9.70737C12.0867 9.41639 12.2296 9.14912 12.4393 8.93934C12.6491 8.72956 12.9164 8.5867 13.2074 8.52882C13.4983 8.47094 13.7999 8.50065 14.074 8.61418C14.3481 8.72771 14.5824 8.91997 14.7472 9.16665C14.912 9.41332 15 9.70333 15 10C14.9996 10.3977 14.8414 10.779 14.5602 11.0602C14.279 11.3414 13.8977 11.4996 13.5 11.5ZM18.5 2.5H10.9494C10.8342 1.93541 10.5274 1.42796 10.0811 1.06351C9.63477 0.699065 9.07623 0.5 8.5 0.5C7.92377 0.5 7.36523 0.699065 6.9189 1.06351C6.47256 1.42796 6.16583 1.93541 6.0506 2.5H0.5C0.367392 2.5 0.240215 2.55268 0.146447 2.64645C0.0526785 2.74022 0 2.86739 0 3C0 3.13261 0.0526785 3.25979 0.146447 3.35355C0.240215 3.44732 0.367392 3.5 0.5 3.5H6.0506C6.16583 4.06459 6.47256 4.57204 6.9189 4.93649C7.36523 5.30094 7.92377 5.5 8.5 5.5C9.07623 5.5 9.63477 5.30094 10.0811 4.93649C10.5274 4.57204 10.8342 4.06459 10.9494 3.5H18.5C18.6326 3.5 18.7598 3.44732 18.8536 3.35355C18.9473 3.25979 19 3.13261 19 3C19 2.86739 18.9473 2.74022 18.8536 2.64645C18.7598 2.55268 18.6326 2.5 18.5 2.5ZM8.5 4.5C8.20333 4.5 7.91332 4.41203 7.66665 4.2472C7.41997 4.08238 7.22771 3.84811 7.11418 3.57403C7.00065 3.29994 6.97094 2.99834 7.02882 2.70737C7.0867 2.41639 7.22956 2.14912 7.43934 1.93934C7.64912 1.72956 7.91639 1.5867 8.20736 1.52882C8.49834 1.47094 8.79994 1.50065 9.07403 1.61418C9.34811 1.72771 9.58238 1.91997 9.7472 2.16665C9.91203 2.41332 10 2.70333 10 3C9.99957 3.39769 9.84139 3.77897 9.56018 4.06018C9.27897 4.34139 8.89769 4.49957 8.5 4.5Z" fill="black"/>
</svg>
