<svg width="36" height="36" viewBox="0 0 36 36" fill="none" xmlns="http://www.w3.org/2000/svg">
<g id="Asset 6 1">
<rect width="36" height="36" rx="18" fill="#F6F6F6"/>
<g id="Layer_1">
<g id="Group">
<g id="Group_2">
<g id="Vector">
<path d="M17.9892 21.4382C17.9689 23.0918 17.5371 24.7632 16.6521 26.2977C15.7596 27.8451 14.5156 29.0631 13.0793 29.9096L13.0909 29.9294C16.0457 28.2852 19.9565 28.1539 23.012 29.9662C19.8468 28.1405 18.059 24.8443 18.0132 21.438" fill="#006DC3"/>
<path d="M17.9892 21.4382C17.9689 23.0918 17.5371 24.7632 16.6521 26.2977C15.7596 27.8451 14.5156 29.0631 13.0793 29.9096L13.0909 29.9294C16.0457 28.2852 19.9565 28.1539 23.012 29.9662C19.8468 28.1405 18.059 24.8443 18.0132 21.438" stroke="#006DC3" stroke-width="0.3" stroke-miterlimit="10"/>
</g>
<g id="Vector_2">
<path d="M15.5598 20.4292C14.3763 21.5841 12.8889 22.4606 11.1781 22.9199C9.453 23.383 7.71189 23.3648 6.09783 22.9475L6.09204 22.9696C9.34412 23.8962 12.2022 26.5688 13.0813 30.0108C12.1341 26.4818 13.2005 22.8867 15.577 20.4458" fill="#006DC3"/>
<path d="M15.5598 20.4292C14.3763 21.5841 12.8889 22.4606 11.1781 22.9199C9.453 23.383 7.71189 23.3648 6.09783 22.9475L6.09204 22.9696C9.34412 23.8962 12.2022 26.5688 13.0813 30.0108C12.1341 26.4818 13.2005 22.8867 15.577 20.4458" stroke="#006DC3" stroke-width="0.3" stroke-miterlimit="10"/>
</g>
<g id="Vector_3">
<path d="M14.5761 17.9895C12.9225 17.9691 11.2511 17.5374 9.71652 16.6523C8.1692 15.7599 6.95112 14.5158 6.10463 13.0796L6.08486 13.0912C7.72908 16.046 7.86033 19.9567 6.0481 23.0122C7.87372 19.8471 11.17 18.0592 14.5763 18.0134" fill="#006DC3"/>
<path d="M14.5761 17.9895C12.9225 17.9691 11.2511 17.5374 9.71652 16.6523C8.1692 15.7599 6.95112 14.5158 6.10463 13.0796L6.08486 13.0912C7.72908 16.046 7.86033 19.9567 6.0481 23.0122C7.87372 19.8471 11.17 18.0592 14.5763 18.0134" stroke="#006DC3" stroke-width="0.3" stroke-miterlimit="10"/>
</g>
<g id="Vector_4">
<path d="M15.5814 15.5732C14.4264 14.3897 13.55 12.9023 13.0907 11.1916C12.6276 9.46643 12.6458 7.72532 13.0631 6.11126L13.0409 6.10547C12.1143 9.35755 9.44183 12.2157 5.99976 13.0947C9.52874 12.1475 13.1238 13.214 15.5648 15.5904" fill="#006DC3"/>
<path d="M15.5814 15.5732C14.4264 14.3897 13.55 12.9023 13.0907 11.1916C12.6276 9.46643 12.6458 7.72532 13.0631 6.11126L13.0409 6.10547C12.1143 9.35755 9.44183 12.2157 5.99976 13.0947C9.52874 12.1475 13.1238 13.214 15.5648 15.5904" stroke="#006DC3" stroke-width="0.3" stroke-miterlimit="10"/>
</g>
<g id="Vector_5">
<path d="M18.0098 14.5739C18.0302 12.9203 18.4619 11.2489 19.347 9.71433C20.2394 8.167 21.4835 6.94892 22.9197 6.10244L22.9081 6.08266C19.9533 7.72688 16.0426 7.85814 12.9871 6.0459C16.1522 7.87152 17.9401 11.1678 17.9859 14.5741" fill="#006DC3"/>
<path d="M18.0098 14.5739C18.0302 12.9203 18.4619 11.2489 19.347 9.71433C20.2394 8.167 21.4835 6.94892 22.9197 6.10244L22.9081 6.08266C19.9533 7.72688 16.0426 7.85814 12.9871 6.0459C16.1522 7.87152 17.9401 11.1678 17.9859 14.5741" stroke="#006DC3" stroke-width="0.3" stroke-miterlimit="10"/>
</g>
<g id="Vector_6">
<path d="M20.4354 15.5816C21.6189 14.4267 23.1063 13.5502 24.8171 13.0909C26.5422 12.6278 28.2833 12.646 29.8974 13.0634L29.9031 13.0412C26.6511 12.1146 23.793 9.44207 22.9139 6C23.8611 9.52898 22.7946 13.1241 20.4182 15.565" fill="#006DC3"/>
<path d="M20.4354 15.5816C21.6189 14.4267 23.1063 13.5502 24.8171 13.0909C26.5422 12.6278 28.2833 12.646 29.8974 13.0634L29.9031 13.0412C26.6511 12.1146 23.793 9.44207 22.9139 6C23.8611 9.52898 22.7946 13.1241 20.4182 15.565" stroke="#006DC3" stroke-width="0.3" stroke-miterlimit="10"/>
</g>
<g id="Vector_7">
<path d="M21.4248 18.0076C23.0784 18.028 24.7498 18.4597 26.2843 19.3448C27.8316 20.2372 29.0497 21.4813 29.8962 22.9175L29.916 22.9059C28.2717 19.9511 28.1405 16.0404 29.9527 12.9849C28.1271 16.15 24.8309 17.9379 21.4246 17.9837" fill="#006DC3"/>
<path d="M21.4248 18.0076C23.0784 18.028 24.7498 18.4597 26.2843 19.3448C27.8316 20.2372 29.0497 21.4813 29.8962 22.9175L29.916 22.9059C28.2717 19.9511 28.1405 16.0404 29.9527 12.9849C28.1271 16.15 24.8309 17.9379 21.4246 17.9837" stroke="#006DC3" stroke-width="0.3" stroke-miterlimit="10"/>
</g>
<g id="Vector_8">
<path d="M20.4182 20.4356C21.5732 21.6192 22.4496 23.1065 22.9089 24.8173C23.372 26.5424 23.3538 28.2835 22.9365 29.8976L22.9587 29.9034C23.8853 26.6513 26.5578 23.7932 29.9998 22.9142C26.4709 23.8613 22.8758 22.7949 20.4348 20.4185" fill="#006DC3"/>
<path d="M20.4182 20.4356C21.5732 21.6192 22.4496 23.1065 22.9089 24.8173C23.372 26.5424 23.3538 28.2835 22.9365 29.8976L22.9587 29.9034C23.8853 26.6513 26.5578 23.7932 29.9998 22.9142C26.4709 23.8613 22.8758 22.7949 20.4348 20.4185" stroke="#006DC3" stroke-width="0.3" stroke-miterlimit="10"/>
</g>
</g>
<path id="Vector_9" d="M17.8931 18.7865C18.3865 18.7865 18.7864 18.3866 18.7864 17.8933C18.7864 17.3999 18.3865 17 17.8931 17C17.3998 17 16.9999 17.3999 16.9999 17.8933C16.9999 18.3866 17.3998 18.7865 17.8931 18.7865Z" fill="#006DC3"/>
</g>
</g>
</g>
</svg>
