<svg width="14" height="14" viewBox="0 0 14 14" fill="none" xmlns="http://www.w3.org/2000/svg">
<g id="fi_5955750" clip-path="url(#clip0_1145_20732)">
<g id="Group">
<path id="Vector" d="M7 0.5C3.42096 0.5 0.5 3.42117 0.5 7C0.5 10.579 3.42117 13.5 7 13.5C10.579 13.5 13.5 10.5788 13.5 7C13.5 3.42096 10.5788 0.5 7 0.5ZM7 12.7383C3.8359 12.7383 1.26172 10.1641 1.26172 7C1.26172 3.8359 3.8359 1.26172 7 1.26172C10.1641 1.26172 12.7383 3.8359 12.7383 7C12.7383 10.1641 10.1641 12.7383 7 12.7383Z" fill="black"/>
<path id="Vector_2" d="M10.4277 6.61914V7.38086H11.1723C10.9907 9.38776 9.38771 10.9904 7.38086 11.1721V10.4277H6.61914V11.172C4.61239 10.9902 3.00976 9.38761 2.82804 7.38086H3.57227V6.61914H2.82791C3.00961 4.61229 4.61224 3.0093 6.61914 2.82771V3.57227H7.38086V2.04883H7C4.26992 2.04883 2.04883 4.26992 2.04883 7C2.04883 9.73008 4.26992 11.9512 7 11.9512C9.73008 11.9512 11.9512 9.73008 11.9512 7V6.61914H10.4277Z" fill="black"/>
<path id="Vector_3" d="M9.69141 3.76904L10.2299 3.23051L10.7685 3.76904L10.2299 4.30758L9.69141 3.76904Z" fill="black"/>
<path id="Vector_4" d="M8.25391 2.9834L8.54564 2.27957L9.24947 2.57131L8.95773 3.27514L8.25391 2.9834Z" fill="black"/>
<path id="Vector_5" d="M10.7275 5.04199L11.4313 4.75026L11.7231 5.45407L11.0193 5.7458L10.7275 5.04199Z" fill="black"/>
<path id="Vector_6" d="M6.6189 6.84225L4.44531 9.01586L4.9839 9.55445L7.38062 7.15775V4.33398H6.6189V6.84225Z" fill="black"/>
</g>
</g>
<defs>
<clipPath id="clip0_1145_20732">
<rect width="14" height="14" fill="white"/>
</clipPath>
</defs>
</svg>
