<svg width="20" height="20" viewBox="0 0 20 20" fill="none" xmlns="http://www.w3.org/2000/svg">
<g id="fi_14372964">
<path id="Vector" d="M18.0741 10.3549L14.9586 8.59824C14.4545 8.31391 13.8536 8.31391 13.3496 8.59824L10.234 10.3549C9.6626 10.6771 9.30719 11.3095 9.30719 12.0055V12.3083C9.30719 15.4607 11.2227 18.2015 13.9653 18.9751C14.0262 18.9926 14.0899 19.0009 14.1536 19.0009C14.2173 19.0009 14.2801 18.9926 14.3419 18.9751C17.0845 18.2024 19 15.4607 19 12.3083V12.0055C19 11.3095 18.6455 10.6771 18.0741 10.3549ZM13.8083 13.2314H14.5007C15.1367 13.2314 15.6546 13.7493 15.6546 14.3853C15.6546 14.9807 15.1958 15.4552 14.6161 15.5161V16.0008C14.6161 16.2556 14.4093 16.4623 14.1545 16.4623C13.8997 16.4623 13.693 16.2556 13.693 16.0008V15.5392H13.116C12.8612 15.5392 12.6544 15.3324 12.6544 15.0776C12.6544 14.8229 12.8612 14.6161 13.116 14.6161H14.5007C14.6281 14.6161 14.7315 14.5127 14.7315 14.3853C14.7315 14.2579 14.6281 14.1545 14.5007 14.1545H13.8083C13.1723 14.1545 12.6544 13.6366 12.6544 13.0006C12.6544 12.4052 13.1132 11.9307 13.693 11.8698V11.3851C13.693 11.1304 13.8997 10.9236 14.1545 10.9236C14.4093 10.9236 14.6161 11.1304 14.6161 11.3851V11.8467H15.193C15.4478 11.8467 15.6546 12.0535 15.6546 12.3083C15.6546 12.5631 15.4478 12.7698 15.193 12.7698H13.8083C13.681 12.7698 13.5776 12.8732 13.5776 13.0006C13.5776 13.128 13.681 13.2314 13.8083 13.2314ZM7.92343 12.0036C7.92343 10.8128 8.55116 9.71429 9.55736 9.15119L10.0928 8.84656H4.46172C4.08324 8.84656 3.76937 8.53269 3.76937 8.15421C3.76937 7.77573 4.08324 7.46187 4.46172 7.46187H10.9236C11.2467 7.46187 11.5236 7.69265 11.5882 7.99728L12.6683 7.38802C13.1206 7.13878 13.6376 7.00031 14.1545 7.00031C14.2284 7.00031 14.3115 7.00031 14.3853 7.01877V3.53859C14.3853 2.13544 13.2499 1 11.8467 1H3.53859C2.13544 1 1 2.13544 1 3.53859V15.5392C1 16.9424 2.13544 18.0778 3.53859 18.0778H10.0743C8.72655 16.5731 7.92343 14.5238 7.92343 12.3083V12.0036ZM4.46172 4.6925H10.9236C11.3021 4.6925 11.6159 5.00636 11.6159 5.38484C11.6159 5.76332 11.3021 6.07718 10.9236 6.07718H4.46172C4.08324 6.07718 3.76937 5.76332 3.76937 5.38484C3.76937 5.00636 4.08324 4.6925 4.46172 4.6925ZM7.23109 11.6159H4.46172C4.08324 11.6159 3.76937 11.3021 3.76937 10.9236C3.76937 10.5451 4.08324 10.2312 4.46172 10.2312H7.23109C7.60957 10.2312 7.92343 10.5451 7.92343 10.9236C7.92343 11.3021 7.60957 11.6159 7.23109 11.6159Z" fill="#3182F6"/>
</g>
</svg>
