<svg width="187" height="187" viewBox="0 0 187 187" fill="none" xmlns="http://www.w3.org/2000/svg">
<g id="fi_11411453">
<g id="Group">
<path id="Vector" d="M146.605 15.7051V110.629H97.1888C94.8879 110.629 92.7695 109.424 91.5642 107.452L82.8351 93.1348C81.6299 91.1625 79.5115 89.9572 77.2105 89.9572H38.0209V28.6709L54.5295 12.1623H143.099C144.998 12.1623 146.605 13.7328 146.605 15.7051Z" fill="#EAEFFE"/>
<path id="Vector_2" d="M58.401 78.4888H51.5711C49.5623 78.4888 47.9553 76.8453 47.9553 74.873V41.0888C47.9553 39.0801 49.5623 37.473 51.5711 37.473H58.401C56.3922 37.473 54.7851 39.0801 54.7851 41.0888V74.873C54.7486 76.8818 56.3556 78.4888 58.401 78.4888Z" fill="#F3AE83"/>
<path id="Vector_3" d="M88.9711 41.0888V74.873C88.9711 76.8453 87.3275 78.4888 85.3553 78.4888H58.3645C56.3557 78.4888 54.7486 76.8453 54.7486 74.873V41.0888C54.7486 39.08 56.3557 37.473 58.3645 37.473H85.3553C87.3641 37.4365 88.9711 39.08 88.9711 41.0888Z" fill="#F6C9AF"/>
<path id="Vector_4" d="M38.0209 28.6709L54.4929 12.1623V25.1281C54.4929 27.1004 52.8859 28.6709 50.9502 28.6709H38.0209Z" fill="#D5DCF8"/>
<path id="Vector_5" d="M48.5762 186.635H26.4064C22.7541 186.635 19.8322 183.676 19.8322 180.061V96.5314C19.8322 92.8791 22.7541 89.9572 26.4064 89.9572H48.5762C44.9238 89.9572 42.0019 92.8791 42.0019 96.5314V180.061C42.0019 183.676 44.9238 186.635 48.5762 186.635Z" fill="#23395B"/>
<path id="Vector_6" d="M167.168 117.204V180.061C167.168 183.676 164.246 186.635 160.594 186.635H48.5762C44.9238 186.635 42.002 183.676 42.002 180.061V96.5314C42.002 92.8791 44.9238 89.9572 48.5762 89.9572H77.2471C79.548 89.9572 81.6664 91.126 82.8717 93.1348L91.6008 107.452C92.8061 109.388 94.9244 110.629 97.2254 110.629H160.63C164.246 110.593 167.168 113.551 167.168 117.204Z" fill="#162E52"/>
<path id="Vector_7" d="M28.5978 89.9207H26.443C22.7906 89.9207 19.8687 92.8426 19.8687 96.4949V83.4926C19.8687 79.9498 22.681 77.0644 26.1873 76.9183L28.5978 89.9207Z" fill="#23395B"/>
<path id="Vector_8" d="M167.168 83.5291V117.204C167.168 113.551 164.246 110.629 160.594 110.629H146.605V99.3802L153.8 76.9548H160.594C164.246 76.9548 167.168 79.9132 167.168 83.5291Z" fill="#23395B"/>
<path id="Vector_9" d="M114.574 30.2779H119.139V25.7125C119.139 23.9594 120.564 22.4984 122.354 22.4984C124.143 22.4984 125.568 23.9228 125.568 25.7125V30.2779H130.133C131.886 30.2779 133.347 31.7023 133.347 33.492C133.347 35.2816 131.923 36.706 130.133 36.706H125.568V41.2715C125.568 43.0246 124.143 44.4855 122.354 44.4855C120.564 44.4855 119.139 43.0611 119.139 41.2715V36.706H114.574C110.337 36.5965 110.337 30.351 114.574 30.2779Z" fill="#F44A7E"/>
<path id="Vector_10" d="M79.7672 143.902H87.1084V136.561C87.1084 133.712 89.4094 131.375 92.2947 131.375C95.1801 131.375 97.481 133.676 97.481 136.561V143.902H104.822C107.671 143.902 110.009 146.203 110.009 149.089C110.009 151.974 107.708 154.275 104.822 154.275H97.481V161.616C97.481 164.465 95.1801 166.802 92.2947 166.802C89.4094 166.802 87.1084 164.502 87.1084 161.616V154.275H79.7672C72.9738 154.056 72.9738 144.048 79.7672 143.902Z" fill="#EAEFFE"/>
<path id="Vector_11" d="M77.7584 64.2447V71.6225H59.1314V64.2447C59.1314 60.775 61.1768 57.7801 64.1352 56.4287C66.4361 58.474 70.4537 58.474 72.7912 56.4287C75.7131 57.7801 77.7584 60.775 77.7584 64.2447Z" fill="#44569B"/>
<path id="Vector_12" d="M75.2748 51.1328C75.0557 60.1176 61.8707 60.1176 61.6516 51.1328C61.8707 42.148 75.0557 42.148 75.2748 51.1328Z" fill="#6A88C8"/>
<g id="Group_2">
<path id="Vector_13" d="M104.165 12.1623H60.5193L63.4777 2.8488C64.0621 0.986103 66.0709 -0.0730767 67.9336 0.547822L104.165 12.1623Z" fill="#C0C8F3"/>
<path id="Vector_14" d="M166.912 35.9756C162.274 50.4389 151.097 85.2822 146.605 99.3438V25.749L164.648 31.5197C166.51 32.1406 167.496 34.1129 166.912 35.9756Z" fill="#C0C8F3"/>
<path id="Vector_15" d="M38.0209 36.5234V89.9572H28.5978C26.9908 81.4473 21.5853 52.3381 19.9052 43.3533C19.54 41.4906 20.7453 39.7375 22.5715 39.4088L38.0209 36.5234Z" fill="#C0C8F3"/>
</g>
<g id="Group_3">
<path id="Vector_16" d="M107.671 46.3117H98.0289C95.4722 46.3117 95.4357 42.3672 98.0289 42.3672H107.671C110.264 42.3672 110.264 46.2752 107.671 46.3117Z" fill="#44569B"/>
</g>
<g id="Group_4">
<path id="Vector_17" d="M133.274 58.3279H98.0289C95.4722 58.3279 95.4357 54.3834 98.0289 54.3834H133.274C135.831 54.3834 135.867 58.2914 133.274 58.3279Z" fill="#44569B"/>
</g>
<g id="Group_5">
<path id="Vector_18" d="M133.274 69.9789H98.0289C95.4722 69.9789 95.4357 66.0344 98.0289 66.0344H133.274C135.831 66.0344 135.867 69.9424 133.274 69.9789Z" fill="#44569B"/>
</g>
<g id="Group_6">
<path id="Vector_19" d="M133.274 82.2142H98.0289C95.4722 82.2142 95.4357 78.2697 98.0289 78.2697H133.274C135.831 78.3062 135.867 82.2142 133.274 82.2142Z" fill="#44569B"/>
</g>
<g id="Group_7">
<path id="Vector_20" d="M133.274 94.4861H98.0289C95.4722 94.4861 95.4357 90.5416 98.0289 90.5416H133.274C135.831 90.5781 135.867 94.4861 133.274 94.4861Z" fill="#44569B"/>
</g>
</g>
</g>
</svg>
