<svg width="20" height="20" viewBox="0 0 20 20" fill="none" xmlns="http://www.w3.org/2000/svg">
<g id="fi_518666" clip-path="url(#clip0_531_2996)">
<path id="Vector" d="M15.0006 1.33855L18.6614 4.99934C19.5125 6.47039 20 8.17824 20 10L18.6614 15.0007C17.7834 16.5182 16.5182 17.7834 15.0006 18.6615L5.97583 10L9.99997 0C11.8217 0 13.5296 0.487422 15.0006 1.33855Z" fill="#3182F6"/>
<g id="Group">
<path id="Vector_2" d="M15.0007 1.33856C16.5181 2.21661 17.7834 3.4818 18.6614 4.99934L10 10L15.0007 1.33856Z" fill="#3182F6"/>
<path id="Vector_3" d="M20 10C20 11.8218 19.5126 13.5296 18.6614 15.0007L10 10H20Z" fill="#3182F6"/>
<path id="Vector_4" d="M15.0007 18.6614C13.5296 19.5126 11.8218 20 10 20L8.39038 15L10 10L15.0007 18.6614Z" fill="#3182F6"/>
</g>
<path id="Vector_5" d="M4.9993 1.33855L1.33852 4.99934C0.487422 6.47039 0 8.17824 0 10L1.33855 15.0007C2.2166 16.5182 3.4818 17.7834 4.99934 18.6615L9.10938 15.9404L10 10V0C8.17824 0 6.47039 0.487422 4.9993 1.33855Z" fill="#3182F6"/>
<g id="Group_2">
<path id="Vector_6" d="M4.99928 1.33856C3.48182 2.21661 2.21655 3.4818 1.3385 4.99934L9.99999 10L4.99928 1.33856Z" fill="#3182F6"/>
<path id="Vector_7" d="M0 10C0 11.8218 0.487422 13.5296 1.33855 15.0007L10 10H0Z" fill="#3182F6"/>
<path id="Vector_8" d="M4.99927 18.6614C6.47036 19.5126 8.17821 20 9.99997 20V10L4.99927 18.6614Z" fill="#3182F6"/>
</g>
<path id="Vector_9" d="M10 1.60962L7.18311 9.99997L10 18.3903C14.6338 18.3903 18.3904 14.6338 18.3904 9.99997C18.3904 5.3661 14.6338 1.60962 10 1.60962Z" fill="#3182F6"/>
<path id="Vector_10" d="M1.60962 9.99997C1.60962 14.6338 5.3661 18.3903 9.99997 18.3903V1.60962C5.36614 1.60962 1.60962 5.36614 1.60962 9.99997Z" fill="#3182F6"/>
<path id="Vector_11" d="M10 2.81689V17.1831C13.9671 17.1831 17.1831 13.9671 17.1831 10C17.1831 6.03291 13.9671 2.81689 10 2.81689Z" fill="#3182F6"/>
<path id="Vector_12" d="M15.9758 9.99998C15.9758 6.03287 13.3003 2.81689 9.99998 2.81689C6.03287 2.81689 2.81689 6.03287 2.81689 9.99998C2.81689 13.9671 6.03287 17.1831 9.99998 17.1831C13.3003 17.1831 15.9758 13.9671 15.9758 9.99998Z" fill="#3182F6"/>
<path id="Vector_13" d="M15.1833 8.15042L11.6017 7.62995L10 4.38452L8.79279 10L10 12.5596L13.2034 14.2437L12.5917 10.6766L15.1833 8.15042Z" fill="white"/>
<g id="Group_3">
<path id="Vector_14" d="M8.3983 7.62995L4.81677 8.15042L7.40837 10.6766L6.79658 14.2437L10 12.5596V4.38452L8.3983 7.62995Z" fill="white"/>
<path id="Vector_15" d="M10 11.1956L8.39992 12.0368L8.7055 10.2551L7.41101 8.99328L9.19996 8.73332L10 7.1123L10.8 8.73332L12.589 8.99328L11.2945 10.2551L11.6001 12.0368L10 11.1956Z" fill="white"/>
</g>
</g>
<defs>
<clipPath id="clip0_531_2996">
<rect width="20" height="20" fill="white"/>
</clipPath>
</defs>
</svg>
