<svg width="24" height="24" viewBox="0 0 24 24" fill="none" xmlns="http://www.w3.org/2000/svg">
<g id="fi_890163" clip-path="url(#clip0_531_3092)">
<path id="Vector" d="M12 0C8.1358 0.00440625 5.00441 3.13584 5 6.99998V11.5C5 11.7761 5.22388 12 5.50002 12H7.49998C7.77612 12 8 11.7761 8 11.5V6.99998C8 4.79086 9.79086 3 12 3C14.2091 3 16 4.79086 16 6.99998V11.5C16 11.7761 16.2238 12 16.5 12H18.5C18.7761 12 19 11.7761 19 11.5V6.99998C18.9956 3.13584 15.8642 0.00440625 12 0Z" fill="#3182F6"/>
<path id="Vector_2" d="M18.5 11H5.5C4.67158 11 4 11.6716 4 12.5V21.5C4 22.8807 4.1193 24 5.5 24H18.5C19.8807 24 20 22.8807 20 21.5V12.5C20 11.6716 19.3285 11 18.5 11Z" fill="#3182F6"/>
<path id="Vector_3" d="M13.351 17.47C13.7662 17.0943 14.0022 16.5599 14 16C14 14.8954 13.1045 14 11.9999 14C10.8954 14 9.99993 14.8954 9.99993 16C9.99777 16.5599 10.2337 17.0943 10.6489 17.47L10.0249 19.342C9.93763 19.604 10.0793 19.8871 10.3413 19.9744C10.3924 19.9914 10.446 20.0001 10.4999 20H13.4999C13.776 20.0003 14.0002 19.7768 14.0005 19.5007C14.0006 19.4468 13.9919 19.3932 13.9749 19.342L13.351 17.47Z" fill="white"/>
</g>
<defs>
<clipPath id="clip0_531_3092">
<rect width="24" height="24" fill="white"/>
</clipPath>
</defs>
</svg>
