<svg width="85" height="85" viewBox="0 0 85 85" fill="none" xmlns="http://www.w3.org/2000/svg">
<g id="Asset 6 1" clip-path="url(#clip0_531_2912)">
<g id="Layer_1">
<g id="Group">
<g id="Group_2">
<g id="Vector">
<path d="M42.4686 54.5997C42.3968 60.4276 40.8752 66.3181 37.756 71.7263C34.6108 77.1796 30.2263 81.4725 25.1646 84.4558L25.2054 84.5255C35.6191 78.7307 49.4019 78.2681 60.1704 84.655C49.0153 78.2209 42.7143 66.604 42.5531 54.599" fill="#237AF2"/>
<path d="M42.4686 54.5997C42.3968 60.4276 40.8752 66.3181 37.756 71.7263C34.6108 77.1796 30.2263 81.4725 25.1646 84.4558L25.2054 84.5255C35.6191 78.7307 49.4019 78.2681 60.1704 84.655C49.0153 78.2209 42.7143 66.604 42.5531 54.599" stroke="#237AF2" stroke-miterlimit="10"/>
</g>
<g id="Vector_2">
<path d="M33.923 51.0341C29.7519 55.1045 24.5098 58.1934 18.4806 59.8122C12.4007 61.4443 6.26441 61.3802 0.575961 59.9093L0.555542 59.9875C12.0169 63.2531 22.0898 72.6719 25.1879 84.8029C21.8497 72.3656 25.6082 59.6953 33.9835 51.0926" fill="#237AF2"/>
<path d="M33.923 51.0341C29.7519 55.1045 24.5098 58.1934 18.4806 59.8122C12.4007 61.4443 6.26441 61.3802 0.575961 59.9093L0.555542 59.9875C12.0169 63.2531 22.0898 72.6719 25.1879 84.8029C21.8497 72.3656 25.6082 59.6953 33.9835 51.0926" stroke="#237AF2" stroke-miterlimit="10"/>
</g>
<g id="Vector_3">
<path d="M30.4003 42.4694C24.5724 42.3976 18.6819 40.876 13.2737 37.7568C7.82043 34.6116 3.52752 30.2271 0.544232 25.1653L0.474526 25.2062C6.26929 35.6199 6.73189 49.4027 0.344971 60.1712C6.77906 49.0161 18.3961 42.7151 30.401 42.5539" fill="#237AF2"/>
<path d="M30.4003 42.4694C24.5724 42.3976 18.6819 40.876 13.2737 37.7568C7.82043 34.6116 3.52752 30.2271 0.544232 25.1653L0.474526 25.2062C6.26929 35.6199 6.73189 49.4027 0.344971 60.1712C6.77906 49.0161 18.3961 42.7151 30.401 42.5539" stroke="#237AF2" stroke-miterlimit="10"/>
</g>
<g id="Vector_4">
<path d="M33.9652 33.9223C29.8948 29.7512 26.8059 24.5092 25.1871 18.4799C23.555 12.4 23.6191 6.26374 25.09 0.57529L25.0118 0.554871C21.7462 12.0163 12.3274 22.0892 0.196411 25.1872C12.6337 21.8491 25.304 25.6076 33.9067 33.9829" fill="#237AF2"/>
<path d="M33.9652 33.9223C29.8948 29.7512 26.8059 24.5092 25.1871 18.4799C23.555 12.4 23.6191 6.26374 25.09 0.57529L25.0118 0.554871C21.7462 12.0163 12.3274 22.0892 0.196411 25.1872C12.6337 21.8491 25.304 25.6076 33.9067 33.9829" stroke="#237AF2" stroke-miterlimit="10"/>
</g>
<g id="Vector_5">
<path d="M42.5306 30.4004C42.6024 24.5725 44.124 18.682 47.2431 13.2738C50.3884 7.82049 54.7728 3.52758 59.8346 0.544293L59.7938 0.474587C49.3801 6.26935 35.5973 6.73195 24.8287 0.345032C35.9838 6.77912 42.2849 18.3961 42.4461 30.4011" fill="#237AF2"/>
<path d="M42.5306 30.4004C42.6024 24.5725 44.124 18.682 47.2431 13.2738C50.3884 7.82049 54.7728 3.52758 59.8346 0.544293L59.7938 0.474587C49.3801 6.26935 35.5973 6.73195 24.8287 0.345032C35.9838 6.77912 42.2849 18.3961 42.4461 30.4011" stroke="#237AF2" stroke-miterlimit="10"/>
</g>
<g id="Vector_6">
<path d="M51.077 33.9652C55.2481 29.8948 60.4902 26.8059 66.5194 25.1872C72.5993 23.5551 78.7356 23.6192 84.424 25.09L84.4445 25.0119C72.9831 21.7462 62.9102 12.3275 59.8121 0.196472C63.1503 12.6337 59.3918 25.3041 51.0165 33.9068" fill="#237AF2"/>
<path d="M51.077 33.9652C55.2481 29.8948 60.4902 26.8059 66.5194 25.1872C72.5993 23.5551 78.7356 23.6192 84.424 25.09L84.4445 25.0119C72.9831 21.7462 62.9102 12.3275 59.8121 0.196472C63.1503 12.6337 59.3918 25.3041 51.0165 33.9068" stroke="#237AF2" stroke-miterlimit="10"/>
</g>
<g id="Vector_7">
<path d="M54.5996 42.5306C60.4274 42.6025 66.318 44.124 71.7262 47.2432C77.1795 50.3884 81.4724 54.7729 84.4557 59.8347L84.5254 59.7938C78.7306 49.3802 78.268 35.5973 84.6549 24.8288C78.2208 35.9839 66.6038 42.2849 54.5989 42.4462" fill="#237AF2"/>
<path d="M54.5996 42.5306C60.4274 42.6025 66.318 44.124 71.7262 47.2432C77.1795 50.3884 81.4724 54.7729 84.4557 59.8347L84.5254 59.7938C78.7306 49.3802 78.268 35.5973 84.6549 24.8288C78.2208 35.9839 66.6038 42.2849 54.5989 42.4462" stroke="#237AF2" stroke-miterlimit="10"/>
</g>
<g id="Vector_8">
<path d="M51.0348 51.077C55.1052 55.2481 58.1941 60.4902 59.8128 66.5194C61.4449 72.5993 61.3809 78.7356 59.91 84.424L59.9882 84.4445C63.2538 72.9831 72.6726 62.9102 84.8036 59.8121C72.3663 63.1503 59.696 59.3918 51.0932 51.0165" fill="#237AF2"/>
<path d="M51.0348 51.077C55.1052 55.2481 58.1941 60.4902 59.8128 66.5194C61.4449 72.5993 61.3809 78.7356 59.91 84.424L59.9882 84.4445C63.2538 72.9831 72.6726 62.9102 84.8036 59.8121C72.3663 63.1503 59.696 59.3918 51.0932 51.0165" stroke="#237AF2" stroke-miterlimit="10"/>
</g>
</g>
<path id="Vector_9" d="M42 46C44.2091 46 46 44.2091 46 42C46 39.7909 44.2091 38 42 38C39.7909 38 38 39.7909 38 42C38 44.2091 39.7909 46 42 46Z" fill="#237AF2" stroke="#237AF2" stroke-miterlimit="10"/>
</g>
</g>
</g>
<defs>
<clipPath id="clip0_531_2912">
<rect width="85" height="85" fill="white"/>
</clipPath>
</defs>
</svg>
