<svg width="16" height="20" viewBox="0 0 16 20" fill="none" xmlns="http://www.w3.org/2000/svg">
<g id="Medical_Book">
<g id="Group">
<path id="Vector" d="M13.7812 17.0312H2.21875C1.34375 17.0312 0.65625 16.3438 0.65625 15.4688V1.71875C0.65625 0.84375 1.34375 0.15625 2.21875 0.15625H13.7812C14.6562 0.15625 15.3438 0.84375 15.3438 1.71875V15.4688C15.3438 16.3438 14.6562 17.0312 13.7812 17.0312Z" fill="#3182F6"/>
<path id="Vector_2" d="M2.21875 17.0312H3.15625C2.28125 17.0312 1.59375 16.3438 1.59375 15.4688V1.71875C1.59375 0.84375 2.28125 0.15625 3.15625 0.15625H2.21875C1.34375 0.15625 0.65625 0.84375 0.65625 1.71875V15.4688C0.65625 16.3438 1.34375 17.0312 2.21875 17.0312Z" fill="#3182F6"/>
<path id="Vector_3" d="M5.03125 19.8438L3.78125 18.9062L2.53125 19.8438V17.0312H5.03125V19.8438Z" fill="#3182F6"/>
<path id="Vector_4" d="M3.3125 0.15625H4.25V17.0312H3.3125V0.15625Z" fill="#3182F6"/>
<path id="Vector_5" d="M13.7812 0.15625H12.8438C13.7188 0.15625 14.4062 0.84375 14.4062 1.71875V15.4688C14.4062 16.3438 13.7188 17.0312 12.8438 17.0312H13.7812C14.6562 17.0312 15.3438 16.3438 15.3438 15.4688V1.71875C15.3438 0.84375 14.6562 0.15625 13.7812 0.15625Z" fill="#3182F6"/>
<g id="Group_2">
<path id="Vector_6" d="M14.5625 12.3438H8.625C8.1875 12.3438 7.84375 12 7.84375 11.5625V5.625C7.84375 5.1875 8.1875 4.84375 8.625 4.84375H14.5625C15 4.84375 15.3438 5.1875 15.3438 5.625V11.5625C15.3438 12 15 12.3438 14.5625 12.3438Z" fill="#3182F6"/>
<path id="Vector_7" d="M13.4688 7.96875H12.2188V6.71875C12.2188 6.53125 12.0938 6.40625 11.9062 6.40625H11.2812C11.0938 6.40625 10.9688 6.53125 10.9688 6.71875V7.96875H9.71875C9.53125 7.96875 9.40625 8.09375 9.40625 8.28125V8.90625C9.40625 9.09375 9.53125 9.21875 9.71875 9.21875H10.9688V10.4688C10.9688 10.6562 11.0938 10.7812 11.2812 10.7812H11.9062C12.0938 10.7812 12.2188 10.6562 12.2188 10.4688V9.21875H13.4688C13.6562 9.21875 13.7812 9.09375 13.7812 8.90625V8.28125C13.7812 8.09375 13.6562 7.96875 13.4688 7.96875Z" fill="#FAFAFA"/>
<path id="Vector_8" d="M14.5625 4.84375H14.4062V12.3438H14.5625C15 12.3438 15.3438 12 15.3438 11.5625V5.625C15.3438 5.1875 15 4.84375 14.5625 4.84375Z" fill="#3182F6"/>
</g>
</g>
</g>
</svg>
