<svg width="20" height="20" viewBox="0 0 20 20" fill="none" xmlns="http://www.w3.org/2000/svg">
<g id="fi_2991108">
<g id="Group">
<g id="Docs_3_">
<g id="Group_2">
<g id="Group_3">
<g id="Group_4">
<g id="Group_5">
<path id="Vector" d="M17.6172 5.27344L13.5156 4.10156L12.3438 0H4.14062C3.1698 0 2.38281 0.786992 2.38281 1.75781V18.2422C2.38281 19.213 3.1698 20 4.14062 20H15.8594C16.8302 20 17.6172 19.213 17.6172 18.2422V5.27344Z" fill="#3182F6"/>
</g>
</g>
</g>
</g>
<path id="Vector_2" d="M17.6172 5.27344V18.2422C17.6172 19.213 16.8302 20 15.8594 20H10V0H12.3438L13.5156 4.10156L17.6172 5.27344Z" fill="#3182F6"/>
<path id="Vector_3" d="M17.6172 5.27344H13.5156C12.8711 5.27344 12.3438 4.74609 12.3438 4.10156V0C12.4961 0 12.6484 0.0585938 12.7539 0.17582L17.4414 4.86332C17.5586 4.96875 17.6172 5.12109 17.6172 5.27344Z" fill="#80AEF8"/>
<g id="Group_6">
<path id="Vector_4" d="M13.5156 9.41406H6.48438C6.16051 9.41406 5.89844 9.15199 5.89844 8.82812C5.89844 8.50426 6.16051 8.24219 6.48438 8.24219H13.5156C13.8395 8.24219 14.1016 8.50426 14.1016 8.82812C14.1016 9.15199 13.8395 9.41406 13.5156 9.41406Z" fill="#FFF5F5"/>
</g>
<g id="Group_7">
<path id="Vector_5" d="M13.5156 11.7578H6.48438C6.16051 11.7578 5.89844 11.4957 5.89844 11.1719C5.89844 10.848 6.16051 10.5859 6.48438 10.5859H13.5156C13.8395 10.5859 14.1016 10.848 14.1016 11.1719C14.1016 11.4957 13.8395 11.7578 13.5156 11.7578Z" fill="#FFF5F5"/>
</g>
<g id="Group_8">
<path id="Vector_6" d="M13.5156 14.1016H6.48438C6.16051 14.1016 5.89844 13.8395 5.89844 13.5156C5.89844 13.1918 6.16051 12.9297 6.48438 12.9297H13.5156C13.8395 12.9297 14.1016 13.1918 14.1016 13.5156C14.1016 13.8395 13.8395 14.1016 13.5156 14.1016Z" fill="#FFF5F5"/>
</g>
<g id="Group_9">
<path id="Vector_7" d="M11.1719 16.4453H6.48438C6.16051 16.4453 5.89844 16.1832 5.89844 15.8594C5.89844 15.5355 6.16051 15.2734 6.48438 15.2734H11.1719C11.4957 15.2734 11.7578 15.5355 11.7578 15.8594C11.7578 16.1832 11.4957 16.4453 11.1719 16.4453Z" fill="#FFF5F5"/>
</g>
</g>
<g id="Docs_4_">
<g id="Group_10">
<g id="Group_11">
<path id="Vector_8" d="M10 16.4453H11.1719C11.4957 16.4453 11.7578 16.1832 11.7578 15.8594C11.7578 15.5355 11.4957 15.2734 11.1719 15.2734H10V16.4453Z" fill="#E3E7EA"/>
</g>
<g id="Group_12">
<path id="Vector_9" d="M10 14.1016H13.5156C13.8395 14.1016 14.1016 13.8395 14.1016 13.5156C14.1016 13.1918 13.8395 12.9297 13.5156 12.9297H10V14.1016Z" fill="#E3E7EA"/>
</g>
<g id="Group_13">
<path id="Vector_10" d="M10 11.7578H13.5156C13.8395 11.7578 14.1016 11.4957 14.1016 11.1719C14.1016 10.848 13.8395 10.5859 13.5156 10.5859H10V11.7578Z" fill="#E3E7EA"/>
</g>
<g id="Group_14">
<path id="Vector_11" d="M10 9.41406H13.5156C13.8395 9.41406 14.1016 9.15199 14.1016 8.82812C14.1016 8.50426 13.8395 8.24219 13.5156 8.24219H10V9.41406Z" fill="#E3E7EA"/>
</g>
</g>
</g>
</g>
</g>
</svg>
