<svg width="26" height="26" viewBox="0 0 26 26" fill="none" xmlns="http://www.w3.org/2000/svg">
<g id="Group">
<g id="Group_2">
<g id="Vector">
<path d="M12.9911 16.4323C12.9707 18.0855 12.5391 19.7564 11.6543 21.2905C10.7621 22.8374 9.51837 24.0552 8.08252 24.9014L8.0941 24.9212C11.0481 23.2774 14.9578 23.1462 18.0124 24.9579C14.8481 23.1328 13.0608 19.8375 13.015 16.4321" fill="#ADB3BA"/>
<path d="M12.9911 16.4323C12.9707 18.0855 12.5391 19.7564 11.6543 21.2905C10.7621 22.8374 9.51837 24.0552 8.08252 24.9014L8.0941 24.9212C11.0481 23.2774 14.9578 23.1462 18.0124 24.9579C14.8481 23.1328 13.0608 19.8375 13.015 16.4321" stroke="#ADB3BA" stroke-width="0.3" stroke-miterlimit="10"/>
</g>
<g id="Vector_2">
<path d="M10.5669 15.4209C9.38376 16.5755 7.89678 17.4517 6.1865 17.9109C4.46184 18.3739 2.72121 18.3557 1.1076 17.9385L1.10181 17.9606C4.35299 18.887 7.21031 21.5588 8.08912 24.9999C7.1422 21.4719 8.20835 17.8778 10.5841 15.4375" fill="#ADB3BA"/>
<path d="M10.567 15.4209C9.38376 16.5755 7.89678 17.4517 6.1865 17.9109C4.46184 18.3739 2.72121 18.3557 1.1076 17.9385L1.10181 17.9606C4.35299 18.887 7.21031 21.5588 8.08912 24.9999C7.1422 21.4719 8.20835 17.8778 10.5841 15.4375" stroke="#ADB3BA" stroke-width="0.3" stroke-miterlimit="10"/>
</g>
<g id="Vector_3">
<path d="M9.56773 12.9914C7.91458 12.971 6.24365 12.5394 4.70953 11.6546C3.16263 10.7624 1.94489 9.51872 1.09864 8.08287L1.07886 8.09445C2.72263 11.0484 2.85385 14.9581 1.04211 18.0128C2.86724 14.8485 6.16256 13.0611 9.56793 13.0154" fill="#ADB3BA"/>
<path d="M9.56773 12.9914C7.91458 12.971 6.24365 12.5394 4.70953 11.6546C3.16263 10.7624 1.94489 9.51872 1.09864 8.08287L1.07886 8.09445C2.72263 11.0484 2.85385 14.9581 1.04211 18.0128C2.86724 14.8485 6.16256 13.0611 9.56793 13.0154" stroke="#ADB3BA" stroke-width="0.3" stroke-miterlimit="10"/>
</g>
<g id="Vector_4">
<path d="M10.579 10.5669C9.42436 9.3837 8.54815 7.89672 8.08897 6.18644C7.626 4.46178 7.64418 2.72115 8.06141 1.10754L8.03924 1.10175C7.1129 4.35293 4.44113 7.21025 1 8.08906C4.52801 7.14214 8.12213 8.20829 10.5624 10.5841" fill="#ADB3BA"/>
<path d="M10.579 10.5669C9.42436 9.3837 8.54815 7.89672 8.08897 6.18644C7.626 4.46178 7.64418 2.72115 8.06141 1.10754L8.03924 1.10175C7.1129 4.35293 4.44113 7.21025 1 8.08906C4.52801 7.14214 8.12213 8.20829 10.5624 10.5841" stroke="#ADB3BA" stroke-width="0.3" stroke-miterlimit="10"/>
</g>
<g id="Vector_5">
<path d="M13.0087 9.56786C13.0291 7.9147 13.4607 6.24377 14.3455 4.70965C15.2377 3.16276 16.4814 1.94501 17.9172 1.09876L17.9056 1.07899C14.9516 2.72275 11.042 2.85398 7.9873 1.04224C11.1516 2.86736 12.939 6.16268 12.9847 9.56806" fill="#ADB3BA"/>
<path d="M13.0087 9.56786C13.0291 7.9147 13.4607 6.24377 14.3455 4.70965C15.2377 3.16276 16.4814 1.94501 17.9172 1.09876L17.9056 1.07899C14.9516 2.72275 11.042 2.85398 7.9873 1.04224C11.1516 2.86736 12.939 6.16268 12.9847 9.56806" stroke="#ADB3BA" stroke-width="0.3" stroke-miterlimit="10"/>
</g>
<g id="Vector_6">
<path d="M15.4329 10.5791C16.6161 9.42445 18.1031 8.54824 19.8134 8.08906C21.5381 7.62609 23.2787 7.64427 24.8923 8.0615L24.8981 8.03933C21.6469 7.11299 18.7896 4.44122 17.9108 1.00009C18.8577 4.5281 17.7915 8.12222 15.4158 10.5625" fill="#ADB3BA"/>
<path d="M15.4329 10.5791C16.6161 9.42445 18.1031 8.54824 19.8134 8.08906C21.5381 7.62609 23.2787 7.64427 24.8923 8.0615L24.8981 8.03933C21.6469 7.11299 18.7896 4.44122 17.9108 1.00009C18.8577 4.5281 17.7915 8.12222 15.4158 10.5625" stroke="#ADB3BA" stroke-width="0.3" stroke-miterlimit="10"/>
</g>
<g id="Vector_7">
<path d="M16.4322 13.0088C18.0854 13.0291 19.7563 13.4608 21.2904 14.3456C22.8373 15.2377 24.0551 16.4815 24.9013 17.9173L24.9211 17.9057C23.2773 14.9517 23.1461 11.042 24.9578 7.9874C23.1327 11.1517 19.8374 12.9391 16.432 12.9848" fill="#ADB3BA"/>
<path d="M16.4322 13.0088C18.0854 13.0291 19.7563 13.4608 21.2904 14.3456C22.8373 15.2377 24.0551 16.4815 24.9013 17.9173L24.9211 17.9057C23.2773 14.9517 23.1461 11.042 24.9578 7.9874C23.1327 11.1517 19.8374 12.9391 16.432 12.9848" stroke="#ADB3BA" stroke-width="0.3" stroke-miterlimit="10"/>
</g>
<g id="Vector_8">
<path d="M15.421 15.4331C16.5757 16.6163 17.4519 18.1033 17.911 19.8135C18.374 21.5382 18.3558 23.2788 17.9386 24.8924L17.9608 24.8982C18.8871 21.647 21.5589 18.7897 25 17.9109C21.472 18.8578 17.8779 17.7917 15.4376 15.4159" fill="#ADB3BA"/>
<path d="M15.421 15.4331C16.5757 16.6163 17.4519 18.1033 17.911 19.8135C18.374 21.5382 18.3558 23.2788 17.9386 24.8924L17.9608 24.8982C18.8871 21.647 21.5589 18.7897 25 17.9109C21.472 18.8578 17.8779 17.7917 15.4376 15.4159" stroke="#ADB3BA" stroke-width="0.3" stroke-miterlimit="10"/>
</g>
</g>
<path id="Vector_9" d="M12.8582 13.9929C13.4848 13.9929 13.9928 13.4849 13.9928 12.8582C13.9928 12.2316 13.4848 11.7236 12.8582 11.7236C12.2315 11.7236 11.7235 12.2316 11.7235 12.8582C11.7235 13.4849 12.2315 13.9929 12.8582 13.9929Z" fill="#ADB3BA" stroke="#ADB3BA" stroke-width="0.3" stroke-miterlimit="10"/>
</g>
</svg>
