<svg width="12" height="12" viewBox="0 0 12 12" fill="none" xmlns="http://www.w3.org/2000/svg">
<g id="fi_2893811" clip-path="url(#clip0_908_11491)">
<g id="star">
<path id="Vector" d="M11.2167 5.15625L8.88081 7.43325L9.43243 10.6492C9.45643 10.7899 9.39868 10.932 9.28318 11.016C9.21793 11.0636 9.14031 11.0876 9.06268 11.0876C9.00306 11.0876 8.94306 11.0734 8.88831 11.0445L6.00006 9.52612L3.11218 11.0441C2.98618 11.1109 2.83281 11.1 2.71731 11.0156C2.60181 10.9316 2.54406 10.7895 2.56806 10.6489L3.11968 7.43287L0.783434 5.15625C0.681434 5.0565 0.644309 4.90725 0.688559 4.77187C0.732809 4.6365 0.850184 4.53712 0.991559 4.51649L4.21993 4.04774L5.66368 1.12199C5.79006 0.86587 6.21006 0.86587 6.33643 1.12199L7.78018 4.04774L11.0086 4.51649C11.1499 4.53712 11.2673 4.63612 11.3116 4.77187C11.3558 4.90762 11.3187 5.05612 11.2167 5.15625Z" fill="white"/>
</g>
</g>
<defs>
<clipPath id="clip0_908_11491">
<rect width="24" height="24" fill="white"/>
</clipPath>
</defs>
</svg>
