<svg width="36" height="36" viewBox="0 0 36 36" fill="none" xmlns="http://www.w3.org/2000/svg">
<g id="fi_16742179" clip-path="url(#clip0_1793_8728)">
<g id="Group">
<path id="Vector" d="M18 36C27.9411 36 36 27.9411 36 18C36 8.05888 27.9411 0 18 0C8.05888 0 0 8.05888 0 18C0 27.9411 8.05888 36 18 36Z" fill="#FB9521"/>
<path id="Vector_2" d="M18.5711 9.23563L21.0263 14.2069C21.1252 14.3969 21.3076 14.5338 21.5204 14.5566L27.001 15.3547C27.5331 15.4307 27.7459 16.0844 27.3583 16.4569L23.3904 20.326C23.2383 20.478 23.1699 20.6833 23.2079 20.8961L24.1429 26.3615C24.2341 26.886 23.6792 27.2964 23.2079 27.0456L18.3051 24.4687C18.115 24.3699 17.8946 24.3699 17.7046 24.4687L12.7941 27.0456C12.3228 27.2964 11.7603 26.886 11.8591 26.3615L12.7941 20.8961C12.8321 20.6833 12.7561 20.478 12.6116 20.326L8.64374 16.4569C8.25607 16.0768 8.46891 15.4307 9.00101 15.3547L14.4816 14.5566C14.6944 14.5186 14.8768 14.3893 14.9757 14.2069L17.4309 9.23563C17.6589 8.75674 18.3355 8.75674 18.5711 9.23563Z" fill="#F2F2F3"/>
</g>
</g>
<defs>
<clipPath id="clip0_1793_8728">
<rect width="36" height="36" fill="#FB9521"/>
</clipPath>
</defs>
</svg>
