<svg width="48" height="48" viewBox="0 0 48 48" fill="none" xmlns="http://www.w3.org/2000/svg">
<g id="fi_5082720">
<g id="Open Folder">
<path id="Vector" d="M45 18H41V14C41.0006 13.6059 40.9233 13.2155 40.7727 12.8513C40.6222 12.4871 40.4012 12.1562 40.1225 11.8775C39.8438 11.5988 39.5129 11.3779 39.1487 11.2273C38.7845 11.0767 38.3941 10.9995 38 11H22.75C22.3035 11.0001 21.8626 10.9005 21.4595 10.7085C21.0564 10.5164 20.7013 10.2368 20.42 9.89L18.46 7.48C18.0864 7.01771 17.6141 6.64487 17.0777 6.38878C16.5413 6.1327 15.9544 5.99986 15.36 6H4.00004C3.60592 5.99948 3.21558 6.07671 2.85136 6.22729C2.48715 6.37787 2.15622 6.59883 1.87754 6.87751C1.59886 7.15619 1.3779 7.48712 1.22732 7.85133C1.07675 8.21554 0.999509 8.60589 1.00004 9V38.57C0.997967 39.0204 1.08629 39.4667 1.25978 39.8824C1.43326 40.298 1.68838 40.6747 2.01004 40.99C2.32535 41.3117 2.702 41.5668 3.11768 41.7403C3.53335 41.9137 3.97961 42.0021 4.43004 42H38.09C38.833 41.9998 39.556 41.759 40.1508 41.3138C40.7456 40.8686 41.1804 40.2428 41.39 39.53L46.92 20.56C47.0063 20.262 47.0222 19.9479 46.9664 19.6427C46.9106 19.3375 46.7846 19.0494 46.5984 18.8012C46.4123 18.553 46.171 18.3514 45.8936 18.2124C45.6162 18.0733 45.3103 18.0006 45 18Z" fill="#376CFB"/>
<path id="Vector_2" d="M44.9987 18H16.5725C15.8303 18.0001 15.1082 18.2409 14.5146 18.6863C13.9209 19.1316 13.4877 19.7575 13.28 20.47L7.71999 39.5314C7.51228 40.2436 7.07918 40.8692 6.48572 41.3143C5.89225 41.7594 5.17043 42 4.42859 42H38.0924C38.8347 42.0001 39.557 41.7594 40.1508 41.314C40.7446 40.8686 41.1779 40.2426 41.3857 39.53L46.9188 20.56C47.0057 20.2619 47.0221 19.9477 46.9665 19.6422C46.911 19.3367 46.7851 19.0484 46.5988 18.8C46.4125 18.5516 46.1709 18.35 45.8932 18.2111C45.6154 18.0723 45.3092 18 44.9987 18Z" fill="#4294FF"/>
</g>
</g>
</svg>
