<svg width="24" height="24" viewBox="0 0 24 24" fill="none" xmlns="http://www.w3.org/2000/svg">
<g id="fi_6339676">
<path id="Vector" d="M1.79387 9.52143L10.1251 20.1689C10.3265 20.4275 10.5853 20.6369 10.8815 20.781C11.1776 20.9251 11.5033 21 11.8334 21C12.1634 21 12.4891 20.9251 12.7853 20.781C13.0814 20.6369 13.3402 20.4275 13.5416 20.1689L21.8729 9.52143C22.1983 9.10624 22.3605 8.58854 22.3297 8.06415C22.2988 7.53976 22.0768 7.04419 21.7049 6.66917L18.6384 3.63691C18.2298 3.23238 17.6763 3.00351 17.0982 3H6.56859C5.9904 3.00351 5.43695 3.23238 5.02836 3.63691L1.9619 6.66917C1.58995 7.04419 1.36799 7.53976 1.33709 8.06415C1.3062 8.58854 1.46847 9.10624 1.79387 9.52143Z" fill="#ADB3BA"/>
</g>
</svg>
