<svg width="24" height="24" viewBox="0 0 24 24" fill="none" xmlns="http://www.w3.org/2000/svg">
<g id="fi_6204566">
<g id="wallet">
<path id="Vector" d="M20.4327 6.41346H6.09615C5.72081 6.41346 5.41346 6.10612 5.41346 5.73077C5.41346 5.35542 5.72081 5.04808 6.09615 5.04808H19.75C19.75 3.9217 18.8283 3 17.7019 3H5.41346C3.52939 3 2 4.52939 2 6.41346V18.7019C2 19.8283 2.9217 20.75 4.04808 20.75H20.4327C21.5591 20.75 22.4808 19.8283 22.4808 18.7019V8.46154C22.4808 7.33516 21.5591 6.41346 20.4327 6.41346ZM18.3846 14.9471C17.6316 14.9471 17.0192 14.3348 17.0192 13.5817C17.0192 12.8287 17.6316 12.2163 18.3846 12.2163C19.1376 12.2163 19.75 12.8287 19.75 13.5817C19.75 14.3348 19.1376 14.9471 18.3846 14.9471Z" fill="#ADB3BA"/>
</g>
</g>
</svg>
