<svg width="24" height="24" viewBox="0 0 24 24" fill="none" xmlns="http://www.w3.org/2000/svg">
<g id="fi_3444339" clip-path="url(#clip0_908_11501)">
<path id="Vector" d="M11.9999 23.8763C18.559 23.8763 23.8762 18.5591 23.8762 12C23.8762 5.44091 18.559 0.123718 11.9999 0.123718C5.44085 0.123718 0.123657 5.44091 0.123657 12C0.123657 18.5591 5.44085 23.8763 11.9999 23.8763Z" fill="#3557E1"/>
<path id="Vector_2" d="M12.9154 11.1093V9.03092H14.5979C15.0928 9.03092 15.5134 8.6103 15.5134 8.11546C15.5134 7.62061 15.1175 7.17525 14.5979 7.17525H12.9154V6.95257C12.9154 6.45773 12.4948 6.03711 12 6.03711C11.5051 6.03711 11.0845 6.45773 11.0845 6.95257V7.17525C9.62472 7.29896 8.48657 8.53608 8.48657 10.0206C8.48657 11.5051 9.62472 12.7423 11.0845 12.866V14.9443H9.40204C8.90719 14.9443 8.48657 15.3649 8.48657 15.8598C8.48657 16.3546 8.90719 16.7753 9.40204 16.7753H11.0845V16.9979C11.0845 17.4928 11.5051 17.9134 12 17.9134C12.4948 17.9134 12.9154 17.4928 12.9154 16.9979V16.7753C14.3752 16.6515 15.5134 15.4144 15.5134 13.9299C15.5134 12.4454 14.3752 11.233 12.9154 11.1093ZM12.9154 14.9443V12.9402C13.3608 13.0639 13.6824 13.4598 13.6824 13.9546C13.6824 14.4247 13.3608 14.8454 12.9154 14.9443ZM11.0845 9.05567V11.0598C10.6391 10.9361 10.3175 10.5402 10.3175 10.0454C10.3175 9.57525 10.6391 9.15463 11.0845 9.05567Z" fill="white"/>
</g>
<defs>
<clipPath id="clip0_908_11501">
<rect width="24" height="24" fill="white"/>
</clipPath>
</defs>
</svg>
