<svg width="36" height="36" viewBox="0 0 36 36" fill="none" xmlns="http://www.w3.org/2000/svg">
<g id="fi_3444339" clip-path="url(#clip0_1552_2717)">
<path id="Vector" d="M18 36C27.9411 36 36 27.9411 36 18C36 8.05887 27.9411 0 18 0C8.05887 0 0 8.05887 0 18C0 27.9411 8.05887 36 18 36Z" fill="#68CD2E"/>
<path id="Vector_2" d="M19.3733 16.6639V13.5464H21.897C22.6393 13.5464 23.2702 12.9155 23.2702 12.1732C23.2702 11.4309 22.6764 10.7629 21.897 10.7629H19.3733V10.4289C19.3733 9.68659 18.7424 9.05566 18.0001 9.05566C17.2578 9.05566 16.6269 9.68659 16.6269 10.4289V10.7629C14.4372 10.9484 12.73 12.8041 12.73 15.0309C12.73 17.2577 14.4372 19.1134 16.6269 19.299V22.4165H14.1032C13.3609 22.4165 12.73 23.0474 12.73 23.7897C12.73 24.5319 13.3609 25.1629 14.1032 25.1629H16.6269V25.4969C16.6269 26.2392 17.2578 26.8701 18.0001 26.8701C18.7424 26.8701 19.3733 26.2392 19.3733 25.4969V25.1629C21.563 24.9773 23.2702 23.1216 23.2702 20.8948C23.2702 18.668 21.563 16.8495 19.3733 16.6639ZM19.3733 22.4165V19.4103C20.0413 19.5959 20.5238 20.1897 20.5238 20.932C20.5238 21.6371 20.0413 22.268 19.3733 22.4165ZM16.6269 13.5835V16.5897C15.9588 16.4041 15.4764 15.8103 15.4764 15.068C15.4764 14.3629 15.9588 13.732 16.6269 13.5835Z" fill="white"/>
</g>
<defs>
<clipPath id="clip0_1552_2717">
<rect width="36" height="36" fill="white"/>
</clipPath>
</defs>
</svg>
