<svg width="19" height="21" viewBox="0 0 19 21" fill="none" xmlns="http://www.w3.org/2000/svg">
<g id="Frame 119">
<path id="Vector" d="M17.6365 14.4989C17.5586 14.4052 17.4822 14.3114 17.4072 14.2209C16.376 12.9736 15.7521 12.2208 15.7521 8.68969C15.7521 6.86156 15.3147 5.36156 14.4527 4.23656C13.8171 3.40547 12.9579 2.775 11.8254 2.30906C11.8108 2.30096 11.7978 2.29032 11.7869 2.27766C11.3796 0.913594 10.2649 0 9.00771 0C7.75052 0 6.6363 0.913594 6.22896 2.27625C6.21809 2.28845 6.20525 2.29875 6.19099 2.30672C3.54818 3.39469 2.2638 5.48203 2.2638 8.68828C2.2638 12.2208 1.64083 12.9736 0.608645 14.2195C0.533645 14.31 0.457239 14.4019 0.379427 14.4975C0.178427 14.7399 0.0510772 15.0348 0.0124486 15.3473C-0.0261799 15.6598 0.0255296 15.9769 0.161458 16.2609C0.450677 16.8703 1.06708 17.2486 1.77068 17.2486H16.2499C16.9502 17.2486 17.5624 16.8708 17.8526 16.2642C17.9891 15.9801 18.0413 15.6628 18.003 15.3499C17.9647 15.037 17.8375 14.7417 17.6365 14.4989Z" fill="#B9C0C6"/>
<path id="Vector_2" d="M9.00773 21C9.68509 20.9995 10.3497 20.8156 10.931 20.4679C11.5123 20.1202 11.9887 19.6217 12.3096 19.0252C12.3247 18.9966 12.3322 18.9646 12.3313 18.9322C12.3304 18.8999 12.3211 18.8684 12.3044 18.8407C12.2877 18.813 12.2641 18.7901 12.236 18.7742C12.2078 18.7583 12.176 18.75 12.1437 18.75H5.87273C5.84035 18.7499 5.80849 18.7582 5.78026 18.774C5.75203 18.7899 5.72839 18.8128 5.71163 18.8405C5.69487 18.8682 5.68558 18.8997 5.68465 18.9321C5.68372 18.9645 5.69119 18.9965 5.70632 19.0252C6.0272 19.6216 6.5035 20.1201 7.08473 20.4678C7.66596 20.8155 8.33045 20.9994 9.00773 21Z" fill="#B9C0C6"/>
</g>
</svg>
